<svg xmlns="http://www.w3.org/2000/svg" viewBox="0 0 32 32" fill="none" role="img" aria-label="frens.earth">
  <defs>
    <radialGradient id="fe-fav-planet" cx="36%" cy="30%" r="82%">
      <stop offset="0%" stop-color="#244534"/>
      <stop offset="100%" stop-color="#0c1912"/>
    </radialGradient>
  </defs>
  <!-- loam tile -->
  <rect x="0" y="0" width="32" height="32" rx="7" fill="#0d1712"/>
  <rect x="0.75" y="0.75" width="30.5" height="30.5" rx="6.25" fill="none" stroke="#2f4033" stroke-width="1.5"/>
  <!-- planet -->
  <circle cx="16" cy="20" r="8.5" fill="url(#fe-fav-planet)" stroke="#53e0d4" stroke-width="1.5"/>
  <!-- landmass -->
  <path d="M9.5 18.8c1.6-1.5 3.7-1.4 5.1-.4 1 .8.5 2.2-.9 2.6-2 .6-4-.1-4.6-1-.4-.6.1-1 .4-1.2z"
        fill="#53e0d4" opacity="0.5"/>
  <!-- sprout -->
  <path d="M16 13.5V6.8" stroke="#5ef78a" stroke-width="1.7" stroke-linecap="round"/>
  <path d="M16 10.2c-.7-3-2.9-4.2-5.2-4.3 .3 2.7 2.1 4.4 5.2 4.3z" fill="#5ef78a"/>
  <path d="M16 8.9c.7-2.5 2.6-3.5 4.6-3.7-.3 2.3-1.9 3.8-4.6 3.7z" fill="#5ef78a"/>
  <!-- heartlight spark -->
  <circle cx="16" cy="5.4" r="1.5" fill="#b795ff"/>
</svg>
